<svg width="165" height="52" viewBox="0 0 165 52" fill="none" xmlns="http://www.w3.org/2000/svg">

    <defs>  
        <linearGradient id="logo-gradient" x1="50%" y1="0%" x2="50%" y2="100%" > 
            
            <stop offset="0%" stop-color="#7A5FFF">
                <animate attributeName="stop-color" values="#7A5FFF; #01FF89; #7A5FFF" dur="4s" repeatCount="indefinite"></animate>
            </stop>

            <stop offset="100%" stop-color="#01FF89">
                <animate attributeName="stop-color" values="#01FF89; #7A5FFF; #01FF89" dur="4s" repeatCount="indefinite"></animate>
            </stop>

        </linearGradient> 

    </defs>



<path  d="M105.117 1.26683C107.918 4.19363 110.115 8.62751 110.955 13.0177C111.214 14.503 111.041 15.1582 110.266 15.3985C109.361 15.7043 108.952 15.0708 108.327 12.4935C108.004 11.1393 107.358 9.23908 106.884 8.23436C105.957 6.33413 103.954 3.27627 103.609 3.27627C103.2 3.27627 101.433 5.83176 100.464 7.79752C98.0082 12.8867 97.5774 19.2426 99.3223 24.5283C100.227 27.2586 102.748 31.758 102.748 30.6441C102.748 29.3335 103.911 25.686 105.117 23.2615C109.016 15.3548 116.449 10.2875 125.044 9.67592C126.617 9.56671 126.81 9.58855 127.177 10.0254C127.543 10.4185 127.564 10.7243 127.457 12.8211C127.263 16.5342 125.97 20.575 124.01 23.611C123.191 24.8778 123.041 25.0089 122.351 25.0089C121.791 25.0089 121.554 24.8778 121.296 24.441C120.994 23.8949 121.037 23.7857 121.963 22.2568C123.601 19.6139 124.742 16.3377 125.065 13.5201L125.216 12.2314H124.355C122.76 12.2314 119.314 13.258 117.052 14.4156C111.731 17.124 107.53 22.1476 105.914 27.7391C105.333 29.7267 105.074 31.0154 105.225 31.0154C105.268 31.0154 106.022 30.5567 106.862 30.0106C113.648 25.5549 122.696 25.0089 130.236 28.5909C133.489 30.1417 137 32.9593 137 34.0077C137 35.8424 130.774 39.8831 125.906 41.2155C123.924 41.7615 123.407 41.8052 119.766 41.8052C116.125 41.8052 115.587 41.7615 113.67 41.2155C111.02 40.4947 107.659 38.9003 107.164 38.1358C106.819 37.6116 106.819 37.5242 107.142 37C107.358 36.6942 107.659 36.3884 107.81 36.3229C107.982 36.2574 109.016 36.6505 110.115 37.1966C116.599 40.4292 123.838 40.2981 130.085 36.8908C131.894 35.9079 133.984 34.4008 133.984 34.0732C133.984 33.7019 130.925 31.6488 129.072 30.7533C126.078 29.3117 123.644 28.7657 119.981 28.7438C116.449 28.722 114.661 29.0496 111.709 30.2509C109.059 31.3211 107.142 32.588 104.773 34.794C99.9901 39.2279 95.3154 41.4121 89.5636 41.9144C82.6915 42.5042 75.5395 40.0142 70.8001 35.4274C69.6153 34.2479 69.7015 33.7237 71.3602 32.2603C74.3115 29.6175 78.4692 27.477 82.1314 26.7125C84.4365 26.232 85.0828 26.4286 85.0828 27.608C85.0828 28.4817 84.8027 28.7001 83.4671 28.9404C80.5588 29.4428 76.7458 31.1246 74.3762 32.9374C73.6437 33.5053 73.019 34.0077 73.019 34.0732C73.019 34.3572 75.9703 36.3884 77.4783 37.1529C80.9682 38.9439 84.3719 39.6429 88.5295 39.4681C91.3731 39.3371 93.5705 38.8566 95.9401 37.8737C97.405 37.2403 100.378 35.4492 100.378 35.1871C100.378 35.0779 99.8824 34.9469 99.3008 34.8595C97.922 34.6629 94.7122 33.6145 93.2258 32.8501C91.3085 31.889 88.7234 30.0543 87.1939 28.6346C82.907 24.6157 79.9341 18.3253 79.5679 12.4717C79.4386 10.5278 79.4602 10.353 79.891 9.95986C80.2788 9.58855 80.5588 9.56671 82.1099 9.67592C86.0091 9.95986 89.5636 11.0956 92.9888 13.1488C94.9707 14.3282 95.4447 14.9398 95.0354 15.8353C94.6907 16.6216 93.7644 16.5561 92.3641 15.6387C89.6282 13.8695 86.3968 12.6464 83.6394 12.3406C81.9591 12.144 81.9591 12.144 82.0237 12.9522C82.3038 16.2721 83.7256 20.1381 85.729 23.1523C88.2279 26.8654 92.2348 30.0106 96.3925 31.5177C98.0298 32.1075 100.356 32.6535 100.507 32.4788C100.572 32.4132 100.162 31.6706 99.6023 30.7969C95.7032 24.6812 94.7553 16.4032 97.1681 9.4575C97.9867 7.09859 98.396 6.2686 99.8393 4.04073C101.196 1.92208 102.941 0 103.502 0C103.717 0 104.449 0.567886 105.117 1.26683Z" fill="url('#logo-gradient')">
</path>

<path fill="url('#logo-gradient')" />
<path d="M19.7656 40.5547V42H4.6875V40.5547H19.7656ZM5.39062 13.5625V42H3.78906V13.5625H5.39062ZM43.7891 25.8867V29.6758C43.7891 31.5768 43.5352 33.3086 43.0273 34.8711C42.5326 36.4336 41.8099 37.7747 40.8594 38.8945C39.9089 40.0143 38.7695 40.8802 37.4414 41.4922C36.1133 42.0911 34.6159 42.3906 32.9492 42.3906C31.3216 42.3906 29.8372 42.0911 28.4961 41.4922C27.1549 40.8802 26.0026 40.0143 25.0391 38.8945C24.0885 37.7747 23.3529 36.4336 22.832 34.8711C22.3242 33.3086 22.0703 31.5768 22.0703 29.6758V25.8867C22.0703 23.9727 22.3242 22.2409 22.832 20.6914C23.3529 19.1289 24.0885 17.7878 25.0391 16.668C25.9896 15.5482 27.1289 14.6888 28.457 14.0898C29.7982 13.4779 31.2826 13.1719 32.9102 13.1719C34.5768 13.1719 36.0742 13.4779 37.4023 14.0898C38.7305 14.6888 39.8698 15.5482 40.8203 16.668C41.7839 17.7878 42.5195 19.1289 43.0273 20.6914C43.5352 22.2409 43.7891 23.9727 43.7891 25.8867ZM42.2266 29.6758V25.8477C42.2266 24.181 42.0182 22.6641 41.6016 21.2969C41.1849 19.9167 40.5729 18.7318 39.7656 17.7422C38.9714 16.7526 38.0013 15.9909 36.8555 15.457C35.7096 14.9102 34.3945 14.6367 32.9102 14.6367C31.4648 14.6367 30.1693 14.9102 29.0234 15.457C27.8776 15.9909 26.9076 16.7526 26.1133 17.7422C25.319 18.7318 24.7135 19.9167 24.2969 21.2969C23.8802 22.6641 23.6719 24.181 23.6719 25.8477V29.6758C23.6719 31.3555 23.8802 32.8854 24.2969 34.2656C24.7266 35.6458 25.3385 36.8307 26.1328 37.8203C26.9271 38.8099 27.8971 39.5781 29.043 40.125C30.2018 40.6589 31.5039 40.9258 32.9492 40.9258C34.4336 40.9258 35.7487 40.6589 36.8945 40.125C38.0404 39.5781 39.0104 38.8099 39.8047 37.8203C40.599 36.8307 41.1979 35.6458 41.6016 34.2656C42.0182 32.8854 42.2266 31.3555 42.2266 29.6758ZM58.5547 13.5625V42H56.9922V13.5625H58.5547ZM68.6719 13.5625V15.0078H46.875V13.5625H68.6719Z" fill="white"/>
<path d="M161.449 35.1055C161.449 34.2591 161.306 33.5039 161.02 32.8398C160.733 32.1628 160.258 31.5638 159.594 31.043C158.943 30.5091 158.083 30.0143 157.016 29.5586C155.948 29.1029 154.633 28.6602 153.07 28.2305C151.638 27.8398 150.342 27.4167 149.184 26.9609C148.038 26.4922 147.055 25.9583 146.234 25.3594C145.427 24.7604 144.809 24.0508 144.379 23.2305C143.949 22.3971 143.734 21.4141 143.734 20.2812C143.734 19.1875 143.969 18.2044 144.438 17.332C144.906 16.4596 145.564 15.7174 146.41 15.1055C147.27 14.4805 148.272 14.0052 149.418 13.6797C150.577 13.3411 151.84 13.1719 153.207 13.1719C155.121 13.1719 156.794 13.5365 158.227 14.2656C159.659 14.9818 160.779 15.9779 161.586 17.2539C162.393 18.5169 162.797 19.9688 162.797 21.6094H161.215C161.215 20.2682 160.883 19.0703 160.219 18.0156C159.568 16.9609 158.643 16.1341 157.445 15.5352C156.26 14.9232 154.848 14.6172 153.207 14.6172C151.514 14.6172 150.076 14.8776 148.891 15.3984C147.719 15.9193 146.827 16.6094 146.215 17.4688C145.616 18.3151 145.316 19.2396 145.316 20.2422C145.316 20.9583 145.447 21.6289 145.707 22.2539C145.98 22.8789 146.423 23.4518 147.035 23.9727C147.66 24.4935 148.5 24.9883 149.555 25.457C150.622 25.9128 151.951 26.3555 153.539 26.7852C154.997 27.1628 156.306 27.5924 157.465 28.0742C158.637 28.543 159.639 29.0964 160.473 29.7344C161.306 30.3724 161.944 31.1276 162.387 32C162.829 32.8724 163.051 33.8945 163.051 35.0664C163.051 36.2253 162.803 37.2604 162.309 38.1719C161.814 39.0703 161.124 39.8385 160.238 40.4766C159.366 41.1016 158.337 41.5768 157.152 41.9023C155.98 42.2279 154.717 42.3906 153.363 42.3906C152.126 42.3906 150.883 42.2409 149.633 41.9414C148.396 41.6419 147.263 41.1602 146.234 40.4961C145.206 39.832 144.379 38.9596 143.754 37.8789C143.129 36.7982 142.816 35.4831 142.816 33.9336H144.398C144.398 35.2617 144.672 36.3815 145.219 37.293C145.766 38.1914 146.482 38.9076 147.367 39.4414C148.253 39.9753 149.216 40.3594 150.258 40.5938C151.312 40.8281 152.348 40.9453 153.363 40.9453C154.952 40.9453 156.352 40.7044 157.562 40.2227C158.786 39.7279 159.737 39.0443 160.414 38.1719C161.104 37.2865 161.449 36.2643 161.449 35.1055Z" fill="white"/>
</svg>
